<svg width="20" height="20" xmlns="http://www.w3.org/2000/svg" class="icon">
 <defs>
  <style type="text/css"/>
 </defs>

 <g>
  <title>Layer 1</title>
  <path stroke="null" d="m10.01925,0.77607a9.45981,9.18767 0 1 0 9.45981,9.17519a9.45981,9.18767 0 0 0 -9.45981,-9.17519zm4.05015,11.92625a0.88449,0.85905 0 1 1 -1.21626,1.2469l-2.83389,-2.80421l-2.83321,2.74055a0.90814,0.88202 0 0 1 -1.28383,-1.2469l2.8224,-2.74974l-2.82038,-2.73858a0.90814,0.88202 0 0 1 1.28383,-1.2469l2.83254,2.86327l2.83254,-2.75105a0.88449,0.85905 0 0 1 1.21626,1.2469l-2.8197,2.73858l2.8197,2.70118l0,0l0,-0.00001z" fill="#707070" id="svg_1"/>
 </g>
</svg>