<svg width="20" height="20" xmlns="http://www.w3.org/2000/svg" class="icon">
 <defs>
  <style type="text/css"/>
 </defs>

  <title>No install</title>
  <path stroke="null" id="svg_1" fill="#707070" d="m9.91925,0.17607a9.75981,9.78767 0 1 0 9.75981,9.77437a9.75981,9.78767 0 0 0 -9.75981,-9.77437zm4.17859,12.70509a0.91254,0.91515 0 1 1 -1.25483,1.32833l-2.92376,-2.98734l-2.92306,2.91952a0.93694,0.93962 0 0 1 -1.32454,-1.32833l2.91191,-2.92931l-2.90982,-2.91742a0.93694,0.93962 0 0 1 1.32454,-1.32833l2.92237,3.05026l2.92237,-2.93071a0.91254,0.91515 0 0 1 1.25483,1.32833l-2.90912,2.91742l2.90912,2.87758l0,0l0,-0.00001l0,0.00001z"/>
 </g>
</svg>