<svg width="50" height="50" xmlns="http://www.w3.org/2000/svg">
 <!-- Created with Method Draw - http://github.com/duopixel/Method-Draw/ -->


 <g>
  <title>user</title>
  <path stroke="#000" fill="#56aaff" stroke-width="1.5" d="m33.72268,18.51138c0,0 1.54358,-6.89072 0,-9.22493c-1.54539,-2.33421 -2.16174,-3.88904 -5.55978,-5.00215s-2.15991,-0.89128 -4.63073,-0.77741c-2.47081,0.1119 -4.53073,1.55483 -4.53073,2.33224c0,0 -1.54358,0.1119 -2.15991,0.77938c-0.61816,0.66748 -1.64721,3.77714 -1.64721,4.55651s0.51453,6.00337 1.02905,7.11452l-0.6127,0.22184c-0.51453,6.44508 2.0581,7.22446 2.0581,7.22446c0.92542,6.00337 1.85265,3.44732 1.85265,5.00215s-0.92723,1.00122 -0.92723,1.00122s-0.82179,2.44414 -2.87988,3.33346c-2.0581,0.88735 -13.48311,5.6657 -14.41216,6.66692c-0.92905,1.00318 -0.8236,5.66963 -0.8236,5.66963l48.99261,0c0,0 0.10727,-4.66645 -0.82179,-5.66963c-0.93088,-1.00318 -12.35588,-5.77957 -14.41398,-6.66692c-2.0581,-0.88932 -2.87988,-3.33346 -2.87988,-3.33346s-0.92723,0.55361 -0.92723,-1.00122s0.92723,1.00122 1.85448,-5.00215c0,0 2.57081,-0.77938 2.0581,-7.22446l-0.61816,0z" id="svg_1"/>
 </g>
</svg>