<svg width="580" height="400" xmlns="http://www.w3.org/2000/svg">
 <g>
  <title>Configuration</title>
  <path stroke="#000" fill="#fff" stroke-width="1.5" d="m21.98715,16.36637c-3.04101,0 -5.50513,2.46412 -5.50513,5.50512c0,3.03959 2.46412,5.50512 5.50513,5.50512c0.69678,0 1.35689,-0.14387 1.97045,-0.38084l1.17917,1.81247l1.91685,-1.24828l-1.17211,-1.79978c0.9944,-0.9958 1.61077,-2.37103 1.61077,-3.88871c0,-3.04101 -2.46412,-5.50512 -5.50513,-5.50512l0,0.00001zm-0.02115,-14.90037c-11.32196,0 -20.5,9.17803 -20.5,20.5c0,11.32197 9.17803,20.5 20.5,20.5c11.32196,0 20.5,-9.17803 20.5,-20.5c0,-11.32197 -9.17803,-20.5 -20.5,-20.5zm14.35028,27.28303c-0.33993,0.71089 -0.72358,1.39638 -1.16506,2.04521l-4.45432,-0.95772c-0.67844,0.74192 -1.45139,1.40203 -2.30474,1.95352l0.16785,4.51638c-0.71512,0.32441 -1.44997,0.59382 -2.21305,0.80397l-2.7575,-3.54596c-0.5247,0.07193 -1.05787,0.12131 -1.60231,0.12131c-0.50213,0 -0.9958,-0.0409 -1.48242,-0.10438l-2.7434,3.52622c-0.76307,-0.21298 -1.50217,-0.48239 -2.21446,-0.80257l0.16502,-4.43738c-0.89425,-0.56137 -1.70386,-1.24122 -2.41475,-2.01276l-4.33583,0.9281c-0.44148,-0.64318 -0.82231,-1.3315 -1.16506,-2.04238l2.9451,-3.25681c-0.31877,-0.99157 -0.49931,-2.04661 -0.54304,-3.13551l-3.90422,-2.06495c0.07758,-0.79411 0.23273,-1.56141 0.42455,-2.31743l4.34993,-0.60228c0.40904,-0.99016 0.95208,-1.90697 1.6009,-2.73916l-1.6672,-4.09182c0.56278,-0.54868 1.17071,-1.0494 1.80965,-1.50922l3.75613,2.35833c0.91682,-0.47534 1.90274,-0.83642 2.94086,-1.05786l1.36535,-4.23287c0.39212,-0.02962 0.78282,-0.05924 1.18058,-0.05924c0.39776,0 0.78987,0.03103 1.18058,0.05924l1.37663,4.27095c1.01555,0.22991 1.97609,0.58676 2.87175,1.05786l3.81396,-2.3936c0.64177,0.45982 1.25111,0.96054 1.81247,1.50922l-1.71515,4.21171c0.60369,0.79552 1.11852,1.66578 1.5064,2.60234l4.4924,0.62202c0.19042,0.75461 0.34839,1.52474 0.42597,2.31743l-4.04386,2.1383c-0.04796,1.02402 -0.21157,2.01699 -0.50073,2.96202l3.04101,3.35978l0.00001,0z" id="svg_1"/>
 </g>
</svg>