<svg width="50" height="50" xmlns="http://www.w3.org/2000/svg">
 <g>
  <title>Health</title>
  <path stroke="#000" fill="#56aaff" stroke-width="1.5" d="m46.641853,14.982684c-0.006534,-4.279269 -2.92702,-7.746468 -6.531894,-7.752287l0,-0.00194l-20.020328,0c-0.82486,-3.143547 -3.284731,-5.442108 -6.215009,-5.447917l-4.69597,0c-3.606502,0.003879 -6.528617,3.473028 -6.535152,7.752287l0,27.497366c0.006534,4.275389 2.928649,7.742598 6.535152,7.750348l30.932946,0c3.601597,-0.007749 6.52535,-3.474967 6.531894,-7.750348l0,-22.047509l-0.001629,0l-0.000009,0zm-37.463201,-9.327944l4.69597,0c1.70852,-0.007749 3.13119,1.616352 3.23899,3.635824l0.09474,1.815972l22.903255,0c1.785277,0.003879 3.26186,1.755891 3.265128,3.876148l0,0.959348c-0.965332,-0.668632 -2.071127,-1.07951 -3.266757,-1.081441l-30.932946,0c-1.19563,0.00194 -2.303072,0.414749 -3.266757,1.08338l0,-6.413075c0.004896,-2.120257 1.48148,-3.872269 3.268386,-3.876148l-0.000009,-0.000009zm30.931307,35.249653l-30.931307,0c-1.785277,-0.003879 -3.26186,-1.75977 -3.268386,-3.876148l0,-14.415375l0.001629,0c0.003267,-2.122196 1.479842,-3.874209 3.266757,-3.878088l30.932946,0c1.785277,0.003879 3.252059,1.746203 3.266757,3.858701l0,14.432822c-0.006534,2.122196 -1.483109,3.874209 -3.268386,3.878088l0,-0.000009l-0.000009,0.000009z" id="svg_1"/>
  <line stroke="#000" fill="none" stroke-width="1.5" stroke-opacity="null" x1="11.5" y1="31.45313" x2="37.5" y2="30.45313" id="svg_2" stroke-linejoin="null" stroke-linecap="null"/>
  <line stroke="#000" fill="none" stroke-width="1.5" stroke-opacity="null" x1="25.5" y1="20.45313" x2="25.5" y2="39.45313" id="svg_3" stroke-linejoin="null" stroke-linecap="null"/>
 </g>
</svg>