<svg width="50" height="50" xmlns="http://www.w3.org/2000/svg">
 <g>
  <title>Settings</title>
  <path stroke="#000" fill="#56aaff" stroke-width="1.5" d="m24.488701,17.456641c-3.263525,0 -5.907952,2.644418 -5.907952,5.907934c0,3.261999 2.644427,5.907934 5.907952,5.907934c0.747758,0 1.456176,-0.154395 2.114622,-0.408706l1.265458,1.945088l2.057108,-1.339621l-1.257879,-1.931465c1.067162,-1.068661 1.728634,-2.54452 1.728634,-4.173257c0,-3.263516 -2.644427,-5.907934 -5.907943,-5.907934l0,0.000018l0,0.000009zm-0.0227,-15.990643c-12.150394,0 -22,9.849589 -22,22.000002c0,12.150404 9.849598,22.000002 22,22.000002c12.150394,0 22,-9.849598 22,-22.000002c0,-12.150412 -9.849598,-22.000002 -22,-22.000002zm15.400296,29.279354c-0.364805,0.762906 -0.776519,1.49855 -1.250309,2.194855l-4.780241,-1.027795c-0.728083,0.796211 -1.557591,1.504621 -2.473384,2.096465l0.180131,4.846843c-0.767441,0.348148 -1.556064,0.637273 -2.374976,0.862795l-2.959269,-3.805417c-0.563092,0.077189 -1.135272,0.130186 -1.719556,0.130186c-0.538865,0 -1.068661,-0.043892 -1.590887,-0.11202l-2.944139,3.784234c-0.818903,-0.228558 -1.612079,-0.517682 -2.376494,-0.861296l0.177096,-4.762067c-0.959676,-0.602441 -1.828532,-1.332033 -2.591438,-2.160032l-4.653081,0.996007c-0.473781,-0.690243 -0.882478,-1.428923 -1.250309,-2.19182l3.160592,-3.495109c-0.342096,-1.064127 -0.535839,-2.196363 -0.582776,-3.364941l-4.189896,-2.216047c0.083259,-0.852217 0.249767,-1.675655 0.455616,-2.486997l4.66822,-0.646351c0.438967,-1.062609 1.021743,-2.046503 1.718038,-2.939586l-1.789193,-4.391218c0.603967,-0.588828 1.25638,-1.126185 1.94207,-1.619649l4.030966,2.530889c0.983903,-0.510122 2.041968,-0.897627 3.156048,-1.135263l1.465254,-4.542596c0.420811,-0.031788 0.840095,-0.063576 1.266958,-0.063576c0.426863,0 0.847664,0.033305 1.266967,0.063576l1.477358,4.583462c1.089862,0.246732 2.120683,0.629694 3.081877,1.135263l4.093033,-2.568747c0.688726,0.493465 1.342656,1.03083 1.945087,1.619658l-1.840646,4.519878c0.64786,0.853735 1.200365,1.787666 1.616623,2.792761l4.821116,0.667534c0.204349,0.809825 0.373883,1.636306 0.457133,2.486997l-4.339747,2.294762c-0.051471,1.098949 -0.227058,2.164576 -0.537375,3.178749l3.263525,3.605621l0.000009,0l0,-0.000009z" id="svg_1"/>
 </g>
</svg>