<svg width="50" height="50" xmlns="http://www.w3.org/2000/svg">
 <g>
  <title>Control</title>
  <path stroke="#000" fill="#56aaff" stroke-width="1.5" d="m24.466,4.466c-12.15042,0 -22,9.84958 -22,22c0,12.15042 9.84958,22 22,22c12.15042,0 22,-9.84958 22,-22c0,-12.15042 -9.84958,-22 -22,-22zm12.69382,20.43787c-2.19637,2.52635 -5.60974,3.36191 -8.60534,2.4007l-10.88043,12.51217c-1.15949,1.33204 -3.17724,1.46828 -4.50929,0.31031s-1.47282,-3.17724 -0.31486,-4.50928l10.89555,-12.5258c-1.35172,-2.82304 -0.99449,-6.30301 1.19126,-8.81574c2.06921,-2.38406 5.22678,-3.25595 8.09523,-2.53392l-4.1687,4.86198l1.36385,3.96738l4.12027,0.80074l4.1793,-4.87408c1.13224,2.74585 0.71599,6.0124 -1.36688,8.40552l0.00001,0.00002l0.00001,0l0.00001,0z" id="svg_1"/>
 </g>
</svg>