<svg width="50" height="50" xmlns="http://www.w3.org/2000/svg">
 <g>
  <title>background</title>
  <rect fill="none" id="canvas_background" height="52" width="52" y="-1" x="-1"/>
 </g>

 <g>
  <title>refresh</title>
  <path stroke="#000" id="svg_1" fill="#56aaff" stroke-width="1.5" d="m13.56329,18.865085c2.544671,4.290256 3.041455,5.593146 2.200097,5.770092c-1.643541,0.345637 -1.313267,2.322422 0.987143,5.908345c2.884959,4.497145 8.535703,7.258791 13.843489,6.765641c2.060175,-0.191408 4.389299,-0.58644 5.175828,-0.877854c0.786529,-0.291414 0.303885,0.251454 -1.072535,1.206385c-6.885639,4.777063 -15.389723,4.444299 -22.17413,-0.867662c-2.705068,-2.117979 -6.426825,-8.306143 -6.426825,-10.685892c0,-0.674168 -0.613584,-1.327407 -1.363536,-1.451632c-1.226447,-0.203164 -1.061738,-0.738112 1.638223,-5.32075c1.650958,-2.802178 3.205069,-5.295885 3.453579,-5.541542c0.24851,-0.245669 1.930914,2.047022 3.738678,5.094869l0,0l-0.000012,0zm21.873612,8.271087c-2.544671,-4.290256 -3.041455,-5.593158 -2.200097,-5.770092c1.643541,-0.345637 1.313267,-2.322422 -0.987131,-5.908345c-2.884959,-4.497145 -8.535703,-7.258791 -13.843501,-6.765641c-2.060175,0.191408 -4.389299,0.586452 -5.175828,0.877866c-0.786529,0.291414 -0.303885,-0.251466 1.072535,-1.206385c6.885652,-4.777063 15.389723,-4.444299 22.17413,0.867662c2.705068,2.117979 6.426825,8.306143 6.426825,10.68588c0,0.674168 0.613596,1.327407 1.363523,1.451632c1.226447,0.203177 1.061738,0.738112 -1.638211,5.32075c-1.650958,2.802178 -3.205069,5.295873 -3.453579,5.541542c-0.24851,0.245669 -1.930914,-2.047022 -3.738678,-5.094869l0,0l0.000012,0z"/>
 </g>
</svg>