<svg width="50" height="50" xmlns="http://www.w3.org/2000/svg">
 <!-- Created with Method Draw - http://github.com/duopixel/Method-Draw/ -->

 <g transform="translate(0,-4)">
  <title>log out</title>
  <path stroke="#000" fill="#56aaff" stroke-width="1.5" d="m39.376584,32.9236c-2.966085,5.096254 -8.484161,8.532499 -14.827156,8.543957c-9.47505,-0.016372 -17.134301,-7.648474 -17.152377,-17.08301c0.018076,-9.439449 7.677327,-17.06991 17.152377,-17.087923c6.341352,0.011458 11.857785,3.446071 14.825513,8.542325l6.510608,3.739111l0.234987,0.134237c-2.154321,-9.904382 -10.986854,-17.326935 -21.571109,-17.330207c-12.197941,0.003273 -22.082164,9.850354 -22.083807,22.002457c0.003287,12.14719 9.88751,21.994271 22.083807,21.997544c10.585898,-0.003273 19.421726,-7.429107 21.571109,-17.33512l-0.2317,0.132605l-6.512252,3.744015l0,0.000009zm7.089038,-8.539053l-11.749329,-6.759537l0,3.760387l-18.03481,0l0,5.993378l18.03481,0l0,3.760387l11.749329,-6.754624l0,0.000009z" id="svg_1"/>
 </g>
</svg>