<svg width="50" height="50" xmlns="http://www.w3.org/2000/svg" class="icon">
 <defs>
  <style type="text/css"/>
 </defs>

 <g>
  <title>Inventory</title>
  <path d="m24.84733,25.14893m-24.68859,0a24.68859,23.98326 0 1 0 49.37717,0a24.68859,23.98326 0 1 0 -49.37717,0z" id="svg_1" stroke="#000" fill="#56aaff" stroke-width="1.5"/>
  <path d="m40.20699,39.3337l-31.44643,0a3.26257,2.65893 0 0 1 -3.4198,-2.6269l0,-3.01133a3.22326,2.6269 0 0 1 3.4198,-2.6269l31.44643,0a3.26257,2.65893 0 0 1 3.4198,2.6269l0,3.01133a3.14464,2.56283 0 0 1 -3.30188,2.6269l-0.11792,0zm-3.81288,-6.11876a2.43709,1.9862 0 0 0 -2.39779,1.95416a2.35848,1.92212 0 0 0 2.39779,1.95416a2.51571,2.05027 0 0 0 2.39779,-2.05027a2.47641,2.01823 0 0 0 -2.39779,-1.89008l0,0.03204l0,-0.00001zm3.93081,-4.1646l-31.44643,0a3.26257,2.65893 0 0 1 -3.4198,-2.6269l0,-3.01133a3.22326,2.6269 0 0 1 3.4198,-2.6269l31.44643,0a3.22326,2.6269 0 0 1 3.4198,2.6269l0,3.01133a3.18395,2.59487 0 0 1 -3.4198,2.6269zm-3.93081,-6.11876a2.35848,1.92212 0 0 0 -2.39779,1.95416a2.43709,1.9862 0 0 0 2.39779,1.95416a2.35848,1.92212 0 0 0 2.67295,-1.95416a2.31918,1.89008 0 0 0 -2.39779,-1.95416l-0.27516,0zm3.93081,-4.1646l-31.44643,0a3.26257,2.65893 0 0 1 -3.4198,-2.6269l0,-3.20354a3.22326,2.6269 0 0 1 3.4198,-2.6269l31.44643,0a3.26257,2.65893 0 0 1 3.4198,2.6269l0,3.01133a3.22326,2.6269 0 0 1 -3.30188,2.69097l-0.11792,0.12814l0,-0.00001l0,0.00001zm-3.93081,-6.21487a2.39779,1.95416 0 1 0 0,3.90832a2.43709,1.9862 0 0 0 2.39779,-1.95416a2.35848,1.92212 0 0 0 -2.39779,-1.95416l0,-0.00001l0,0.00001z" id="svg_2" stroke="#000" fill="#ffffff"/>
 </g>
</svg>