<svg width="50" height="50" xmlns="http://www.w3.org/2000/svg" class="icon">
 <defs>
  <style type="text/css"/>
 </defs>

 <g>
  <title>Inventory</title>
  <path stroke="null" id="svg_1" fill="#56aaff" d="m24.84733,25.14893m-24.68859,0a24.68859,23.98326 0 1 0 49.37717,0a24.68859,23.98326 0 1 0 -49.37717,0z"/>
  <path stroke="null" id="svg_2" fill="#ffffff" d="m40.20699,39.3337l-31.44643,0a3.26257,2.65893 0 0 1 -3.4198,-2.6269l0,-3.01133a3.22326,2.6269 0 0 1 3.4198,-2.6269l31.44643,0a3.26257,2.65893 0 0 1 3.4198,2.6269l0,3.01133a3.14464,2.56283 0 0 1 -3.30188,2.6269l-0.11792,0zm-3.81288,-6.11876a2.43709,1.9862 0 0 0 -2.39779,1.95416a2.35848,1.92212 0 0 0 2.39779,1.95416a2.51571,2.05027 0 0 0 2.39779,-2.05027a2.47641,2.01823 0 0 0 -2.39779,-1.89008l0,0.03204l0,-0.00001zm3.93081,-4.1646l-31.44643,0a3.26257,2.65893 0 0 1 -3.4198,-2.6269l0,-3.01133a3.22326,2.6269 0 0 1 3.4198,-2.6269l31.44643,0a3.22326,2.6269 0 0 1 3.4198,2.6269l0,3.01133a3.18395,2.59487 0 0 1 -3.4198,2.6269zm-3.93081,-6.11876a2.35848,1.92212 0 0 0 -2.39779,1.95416a2.43709,1.9862 0 0 0 2.39779,1.95416a2.35848,1.92212 0 0 0 2.67295,-1.95416a2.31918,1.89008 0 0 0 -2.39779,-1.95416l-0.27516,0zm3.93081,-4.1646l-31.44643,0a3.26257,2.65893 0 0 1 -3.4198,-2.6269l0,-3.20354a3.22326,2.6269 0 0 1 3.4198,-2.6269l31.44643,0a3.26257,2.65893 0 0 1 3.4198,2.6269l0,3.01133a3.22326,2.6269 0 0 1 -3.30188,2.69097l-0.11792,0.12814l0,-0.00001l0,0.00001zm-3.93081,-6.21487a2.39779,1.95416 0 1 0 0,3.90832a2.43709,1.9862 0 0 0 2.39779,-1.95416a2.35848,1.92212 0 0 0 -2.39779,-1.95416l0,-0.00001l0,0.00001zm0,0"/>
  <path stroke="null" id="svg_4" fill="#56aaff" d="m17.91329,24.49675c-0.89972,-0.39111 -1.33002,-0.704 -1.33002,-1.29066s0.35206,-0.93866 1.21266,-0.93866a2.66003,2.65954 0 0 1 1.2909,0.31289l0.4303,-1.056a3.32504,3.32443 0 0 0 -1.52561,-0.31289a2.07327,2.07288 0 0 0 -2.34709,1.99465c0,0.97777 0.70413,1.60355 1.79944,2.03377s1.21266,0.74311 1.21266,1.32977s-0.46942,1.09511 -1.33002,1.09511a3.12945,3.12887 0 0 1 -1.7212,-0.43022l-0.23471,0.89955a3.48151,3.48087 0 0 0 1.7212,0.27378c1.60385,0 2.42533,-0.74311 2.42533,-1.91644s-0.46942,-1.60355 -1.60385,-1.99465l0,0l-0.00001,-0.00001l0.00002,0.00001zm5.04624,0c-0.89972,-0.39111 -1.33002,-0.704 -1.33002,-1.29066s0.35206,-0.93866 1.21266,-0.93866a2.66003,2.65954 0 0 1 1.2909,0.31289l0.27383,-0.89955a3.32504,3.32443 0 0 0 -1.52561,-0.31289a2.07327,2.07288 0 0 0 -2.34709,1.99465c0,0.97777 0.70413,1.60355 1.79944,2.03377s1.21266,0.74311 1.21266,1.32977s-0.46942,1.09511 -1.33002,1.09511a3.12945,3.12887 0 0 1 -1.56472,-0.43022l-0.23471,0.89955a3.48151,3.48087 0 0 0 1.7212,0.11733c1.60385,0 2.50356,-0.89955 2.50356,-2.11199s-0.54765,-1.40799 -1.68208,-1.7991l-0.00001,0l0.00001,0zm4.65506,-3.24621a11.73545,11.73327 0 0 0 -1.83855,0l0,7.15729l1.56472,0a4.10741,4.10665 0 0 0 2.93386,-0.93866a3.91182,3.91109 0 0 0 0.97796,-2.73777c0,-1.60355 -0.58677,-3.48087 -3.63799,-3.48087l0,0l0,0.00001zm0,6.41419l-0.70413,0l0,-5.47553l0.8606,0c1.56472,0 2.46444,0.89955 2.46444,2.65954s-1.01707,2.81599 -2.66003,2.81599l0.03912,0l0,-0.00001l0,0.00001z"/>
 </g>
</svg>