<svg width="30" height="40" xmlns="http://www.w3.org/2000/svg">
 <!-- Created with Method Draw - http://github.com/duopixel/Method-Draw/ -->

 <g>
  <title>background</title>
  <rect fill="#fff" id="canvas_background" height="42" width="32" y="-1" x="-1"/>
  <g display="none" id="canvasGrid">
   <rect fill="url(#gridpattern)" stroke-width="0" y="0" x="0" height="100%" width="100%" id="svg_2"/>
  </g>
 </g>
 <g>
  <title>Layer 1</title>
  <path stroke="#000" id="svg_1" d="m28.7704,5.8327l-4.40526,-2.45646c-1.11146,-0.61916 -2.576,-0.32116 -3.27634,0.66511l-1.73636,2.45187l8.42745,4.69593l1.73773,-2.45073c0.69768,-0.98745 0.3647,-2.28794 -0.74722,-2.90573l0,0l0,0.00001zm-24.41464,21.84359l8.42791,4.69588l13.7361,-19.39977l-8.43192,-4.69711l-13.73209,19.401l0,0zm-1.28736,5.9663l-0.18614,4.41076l4.3985,-2.06404l4.08746,-1.91468l-8.13067,-4.53314l-0.16914,4.10109l0,0l0,0l-0.00001,0.00001z" stroke-width="1.5" fill="#56aaff"/>
 </g>
</svg>