<svg width="60" height="60" xmlns="http://www.w3.org/2000/svg">
 <!--<g>
  <title>refresh</title> 
  <rect x="-1" y="-1" width="45" height="45" id="canvas_background" fill="#fff"/> 
  <g display="none" overflow="visible" y="0" x="0" height="100%" width="100%" id="canvasGrid">
   <rect id="svg_1" fill="url(#gridpattern)" stroke-width="0" y="0" x="0" height="100%" width="100%"/>
  </g>
 </g>-->
 <g transform="translate(4,-1) scale(1.3,1.3)">
  <title>refresh</title>
  <path stroke="#000" d="m8.6973,12.16922c2.04815,3.45604 2.448,4.50559 1.77081,4.64813c-1.32285,0.27843 -1.05702,1.87084 0.79453,4.7595c2.32204,3.6227 6.8702,5.84736 11.14232,5.4501c1.65819,-0.15419 3.53285,-0.47241 4.16591,-0.70716c0.63306,-0.23475 0.24459,0.20256 -0.86326,0.97181c-5.5421,3.84819 -12.38685,3.58013 -17.84747,-0.69895c-2.17725,-1.70615 -5.17281,-6.69106 -5.17281,-8.60808c0,-0.54308 -0.49386,-1.0693 -1.09748,-1.16937c-0.98714,-0.16366 -0.85457,-0.59459 1.31857,-4.28616c1.32882,-2.25731 2.57969,-4.26613 2.77971,-4.46402c0.20002,-0.1979 1.55415,1.64899 3.00918,4.1042l0,0zm17.60559,6.66282c-2.04815,-3.45604 -2.448,-4.5056 -1.77081,-4.64813c1.32285,-0.27843 1.05702,-1.87084 -0.79452,-4.7595c-2.32204,-3.6227 -6.8702,-5.84736 -11.14233,-5.4501c-1.65819,0.15419 -3.53285,0.47242 -4.16591,0.70717c-0.63306,0.23475 -0.24459,-0.20257 0.86326,-0.97181c5.54211,-3.84819 12.38685,-3.58013 17.84747,0.69895c2.17725,1.70615 5.17281,6.69106 5.17281,8.60807c0,0.54308 0.49387,1.0693 1.09747,1.16937c0.98714,0.16367 0.85457,0.59459 -1.31856,4.28616c-1.32882,2.25731 -2.57969,4.26612 -2.77971,4.46402c-0.20002,0.1979 -1.55415,-1.64899 -3.00918,-4.1042l0,0z" stroke-width="1.5" fill="#56aaff"/>
 </g>
</svg>