<svg width="50" height="50" xmlns="http://www.w3.org/2000/svg" class="icon">
 <defs>
  <style type="text/css"/>
 </defs>

 <g>
  <title>Inventory</title>
  <path stroke="#000" fill="#56aaff" id="svg_2" d="m42.6066,46.26523l-34.66909,0a3.59692,3.24541 0 0 1 -3.77026,-3.20631l0,-3.67554a3.55357,3.20631 0 0 1 3.77026,-3.20631l34.66909,0a3.59692,3.24541 0 0 1 3.77026,3.20631l0,3.67554a3.4669,3.12812 0 0 1 -3.64025,3.20631l-0.13,0l-0.00001,0zm-4.20363,-7.46838a2.68685,2.4243 0 0 0 -2.64352,2.38519a2.60018,2.34608 0 0 0 2.64352,2.38519a2.77352,2.5025 0 0 0 2.64352,-2.5025a2.73019,2.46339 0 0 0 -2.64352,-2.30697l0,0.03911l0,-0.00001l0,-0.00001zm4.33364,-5.0832l-34.66909,0a3.59692,3.24541 0 0 1 -3.77026,-3.20631l0,-3.67554a3.55357,3.20631 0 0 1 3.77026,-3.20631l34.66909,0a3.55357,3.20631 0 0 1 3.77026,3.20631l0,3.67554a3.51025,3.16723 0 0 1 -3.77026,3.20631zm-4.33364,-7.46838a2.60018,2.34608 0 0 0 -2.64352,2.38519a2.68685,2.4243 0 0 0 2.64352,2.38519a2.60018,2.34608 0 0 0 2.94688,-2.38519a2.55685,2.30697 0 0 0 -2.64352,-2.38519l-0.30336,0l-0.00001,0zm4.33364,-5.0832l-34.66909,0a3.59692,3.24541 0 0 1 -3.77026,-3.20631l0,-3.91015a3.55357,3.20631 0 0 1 3.77026,-3.20631l34.66909,0a3.59692,3.24541 0 0 1 3.77026,3.20631l0,3.67554a3.55357,3.20631 0 0 1 -3.64025,3.28452l-0.13,0.15641l0,-0.00001l0,0.00001l-0.00001,0l0,-0.00001zm-4.33364,-7.58568a2.64352,2.38519 0 1 0 0,4.77038a2.68685,2.4243 0 0 0 2.64352,-2.38519a2.60018,2.34608 0 0 0 -2.64352,-2.38519l0,-0.00001l0,0.00001z"/>
 </g>
</svg>