<svg width="50" height="50" xmlns="http://www.w3.org/2000/svg">

 <g>
  <title>Health</title>
  <path stroke="#000" fill="#56aaff" stroke-width="1.5" d="m46.641888,15.368631c-0.006386,-4.080233 -2.860497,-7.386167 -6.383441,-7.391716l0,-0.001849l-19.56532,0c-0.806113,-2.997336 -3.210078,-5.188986 -6.073759,-5.194526l-4.589244,0c-3.524536,0.003699 -6.380239,3.311491 -6.386625,7.391716l0,26.218418c0.006386,4.076534 2.862089,7.382477 6.386625,7.389866l30.229924,0c3.519742,-0.007389 6.377046,-3.313341 6.383441,-7.389866l0,-21.022043l-0.001592,0l-0.000009,0zm-36.611764,-8.894086l4.589244,0c1.66969,-0.007389 3.060026,1.541173 3.165376,3.466716l0.092587,1.731509l22.382726,0c1.744702,0.003699 3.187727,1.674222 3.19092,3.695862l0,0.914727c-0.943393,-0.637533 -2.024056,-1.029301 -3.192512,-1.031141l-30.229924,0c-1.168456,0.001849 -2.25073,0.395458 -3.192512,1.032991l0,-6.114792c0.004785,-2.02164 1.44781,-3.692163 3.194104,-3.695862l-0.000009,-0.000009zm30.228323,33.610134l-30.228323,0c-1.744702,-0.003699 -3.187727,-1.677921 -3.194104,-3.695862l0,-13.744892l0.001592,0c0.003193,-2.02349 1.446209,-3.694013 3.192512,-3.697711l30.229924,0c1.744702,0.003699 3.178148,1.664984 3.192512,3.679227l0,13.761528c-0.006386,2.02349 -1.449402,3.694013 -3.194104,3.697711l0,-0.000009l-0.000009,0.000009z" id="svg_1"/>
  <rect fill="#56aaff" stroke-opacity="null" x="12" y="28" width="28" height="2.5" id="svg_7" stroke="#000"/>
  <rect stroke="#000" fill="#56aaff" stroke-opacity="null" x="24.5" y="21" width="2.5" height="17" id="svg_8"/>
 </g>
</svg>