<svg width="60" height="60" xmlns="http://www.w3.org/2000/svg">
 <g>
  <title>Control</title>
  <path stroke="#000" fill="#56aaff" stroke-width="1.5" d="m29.466,6.466c-13.80729,0 -25,10.745 -25,24c0,13.255 11.19271,24 25,24c13.80729,0 25,-10.745 25,-24c0,-13.255 -11.19271,-24 -25,-24zm14.4248,22.29586c-2.49587,2.75602 -6.3747,3.66754 -9.7788,2.61895l-12.36412,13.64964c-1.3176,1.45314 -3.6105,1.60176 -5.12419,0.33852s-1.67366,-3.46608 -0.35779,-4.91922l12.38131,-13.66451c-1.53605,-3.07968 -1.1301,-6.87601 1.35371,-9.61717c2.35138,-2.60079 5.93952,-3.55195 9.19912,-2.76428l-4.73716,5.30398l1.54983,4.32805l4.68213,0.87354l4.7492,-5.31718c1.28664,2.99547 0.81362,6.55898 -1.55327,9.16966l0.00001,0.00002l0.00001,0l0.00001,0z" id="svg_1"/>
 </g>
</svg>