<svg width="50" height="50" xmlns="http://www.w3.org/2000/svg" class="icon">
 <defs>
  <style type="text/css"/>
 </defs>

 <g>
  <title>Inventory</title>
  <path stroke="#000" d="m43.33018,47.2649l-37.12553,0a3.85178,3.52017 0 0 1 -4.0374,-3.47776l0,-3.98671a3.80536,3.47776 0 0 1 4.0374,-3.47776l37.12553,0a3.85178,3.52017 0 0 1 4.0374,3.47776l0,3.98671a3.71254,3.39295 0 0 1 -3.89818,3.47776l-0.13921,0l-0.00001,0zm-4.50147,-8.10066a2.87722,2.62954 0 0 0 -2.83082,2.58712a2.78441,2.5447 0 0 0 2.83082,2.58712a2.97004,2.71436 0 0 0 2.83082,-2.71436a2.92364,2.67194 0 0 0 -2.83082,-2.50228l0,0.04242l0,-0.00001zm4.6407,-5.51354l-37.12553,0a3.85178,3.52017 0 0 1 -4.0374,-3.47776l0,-3.98671a3.80536,3.47776 0 0 1 4.0374,-3.47776l37.12553,0a3.80536,3.47776 0 0 1 4.0374,3.47776l0,3.98671a3.75896,3.43537 0 0 1 -4.0374,3.47776zm-4.6407,-8.10066a2.78441,2.5447 0 0 0 -2.83082,2.58712a2.87722,2.62954 0 0 0 2.83082,2.58712a2.78441,2.5447 0 0 0 3.15568,-2.58712a2.73801,2.50228 0 0 0 -2.83082,-2.58712l-0.32485,0l-0.00001,0zm4.6407,-5.51354l-37.12553,0a3.85178,3.52017 0 0 1 -4.0374,-3.47776l0,-4.24118a3.80536,3.47776 0 0 1 4.0374,-3.47776l37.12553,0a3.85178,3.52017 0 0 1 4.0374,3.47776l0,3.98671a3.80536,3.47776 0 0 1 -3.89818,3.56259l-0.13921,0.16965l0,-0.00001l0,0.00001l-0.00001,0zm-4.6407,-8.22789a2.83082,2.58712 0 1 0 0,5.17424a2.87722,2.62954 0 0 0 2.83082,-2.58712a2.78441,2.5447 0 0 0 -2.83082,-2.58712l0,-0.00001l0,0.00001z" id="svg_2" fill="#56aaff"/>
 </g>
</svg>