<svg width="60" height="60" xmlns="http://www.w3.org/2000/svg">
    <g transform="translate(1,-5) scale(1,1)">
	   <title>logout</title>
       <path stroke="#000" fill="#56aaff" stroke-width="1.5" d="m25.59332,5.24998c-8.16374,0 -15.06721,5.38287 -17.44711,12.81564l4.38704,0c2.18738,-5.10065 7.19703,-8.67454 13.06007,-8.68556c7.87018,0.01377 14.23841,6.43466 14.2507,14.36855c-0.01229,7.93526 -6.38053,14.35616 -14.2507,14.36992c-5.86304,-0.00964 -10.87407,-3.58628 -13.06143,-8.68831l-4.38567,0c2.38126,7.43277 9.28337,12.81701 17.44848,12.81977c10.12992,-0.00276 18.34691,-8.28219 18.34827,-18.5c-0.00273,-10.2192 -8.21972,-18.49725 -18.34964,-18.5l0,-0.00001zm-5.66505,24.17886l9.76263,-5.68023l-9.76263,-5.68436l0,3.16226l-14.98529,0l0,5.04007l14.98529,0l0,3.16226l0,-0.00001z" id="svg_1"/>
    </g>
</svg>