<svg width="50" height="50" xmlns="http://www.w3.org/2000/svg">
 <!-- Created with Method Draw - http://github.com/duopixel/Method-Draw/ -->

 <g>
  <title>background</title>
  <rect x="-1" y="-1" width="52" height="52" id="canvas_background" fill="#fff"/>
  <g id="canvasGrid" display="none">
   <rect id="svg_2" width="100%" height="100%" x="0" y="0" stroke-width="0" fill="url(#gridpattern)"/>
  </g>
 </g>
 <g>
  <title>Layer 1</title>
  <path stroke="#000" fill="#0fffff" stroke-width="1.5" d="m6.703892,37.162623l36.839301,0.013771l-1.19544,1.729092l-34.434292,-0.041285l-1.209559,-1.701559l0,0l0,-0.00001l-0.00001,0l0,-0.00001zm0.253167,-23.000862l36.347029,-0.041285l1.054833,1.773779l-38.470776,0.013771l1.068914,-1.746256l0,-0.00001zm-3.587011,11.525424l43.49289,-0.041285l-0.056218,1.773779l-43.408549,-0.027533l-0.028133,-1.704971l0.00001,0l0.00001,0l-0.00001,0.00001zm43.528897,0.164517c0,11.742889 -9.763186,21.295843 -21.76572,21.295843c-11.997364,0 -21.758718,-9.554689 -21.758718,-21.295843c0,-11.741222 9.763128,-21.294176 21.758718,-21.294176c12.002544,-0.001725 21.76572,9.552954 21.76572,21.294176zm-21.764012,-23.000862c-12.955061,0 -23.497353,10.317225 -23.497353,22.999147c0,12.683647 10.542292,23.000862 23.497353,23.000862c12.962111,0 23.502648,-10.317225 23.502648,-23.000862c0,-12.681912 -10.540537,-22.999147 -23.502648,-22.999147zm6.594014,23.000862c0,12.548253 -3.473856,21.295843 -6.594014,21.295843c-3.116637,0 -6.590436,-8.74759 -6.590436,-21.295843c0,-12.551703 3.472082,-21.294176 6.590436,-21.294176c3.118412,-0.001725 6.594014,8.742463 6.594014,21.294176zm-6.594014,-23.000862c-5.41206,0 -8.332601,11.850817 -8.332601,22.999147c0,11.151722 2.920542,23.000862 8.332601,23.000862c5.412108,0 8.337944,-11.850865 8.337944,-23.000862c-0.001765,-11.148311 -2.925836,-22.999147 -8.337944,-22.999147zm15.443155,23.000862c0,11.742889 -6.930169,21.295843 -15.443155,21.295843c-8.511221,0 -15.43787,-9.554689 -15.43787,-21.295843c0,-11.741222 6.926649,-21.294176 15.43787,-21.294176c8.512985,-0.001725 15.443155,9.552954 15.443155,21.294176zm-15.443155,-23.000862c-9.47074,0 -17.180025,10.317225 -17.180025,22.999147c0,12.683647 7.709285,23.000862 17.180025,23.000862c9.47427,0 17.181838,-10.317225 17.181838,-23.000862c0,-12.681912 -7.707578,-22.999147 -17.181838,-22.999147z" id="svg_1"/>
  <ellipse fill="#0fffff" stroke="#fcfcc2" stroke-width="1.5" fill-opacity="null" cx="50.5" cy="66.45313" id="svg_4"/>
 </g>
</svg>