<svg width="60" height="60" xmlns="http://www.w3.org/2000/svg">
 <g>
  <title>Health</title>
  <path stroke="#000" fill="#56aaff" stroke-width="1.5" d="m53.64174,20.21079c-0.00698,-4.67734 -3.12659,-8.46707 -6.97725,-8.47343l0,-0.00212l-21.38535,0c-0.8811,-3.43597 -3.50869,-5.94835 -6.63876,-5.9547l-5.01615,0c-3.8524,0.00424 -6.97375,3.7961 -6.98073,8.47343l0,30.05526c0.00698,4.6731 3.12833,8.46284 6.98073,8.47131l33.04201,0c3.84716,-0.00847 6.97026,-3.79822 6.97725,-8.47131l0,-24.09844l-0.00174,0zm-40.01751,-10.19566l5.01615,0c1.82501,-0.00847 3.34468,1.76671 3.45983,3.97404l0.1012,1.9849l24.46484,0c1.907,0.00424 3.48426,1.91923 3.48775,4.23672l0,1.04859c-1.03115,-0.73083 -2.21234,-1.17993 -3.48949,-1.18204l-33.04201,0c-1.27715,0.00212 -2.4601,0.45333 -3.48949,1.18416l0,-7.00964c0.00523,-2.31749 1.58249,-4.23248 3.49123,-4.23672l-0.00001,-0.00001zm33.04026,38.52869l-33.04026,0c-1.907,-0.00424 -3.48426,-1.92347 -3.49123,-4.23672l0,-15.75634l0.00174,0c0.00349,-2.31961 1.58074,-4.2346 3.48949,-4.23884l33.04201,0c1.907,0.00424 3.47379,1.90864 3.48949,4.21765l0,15.77541c-0.00698,2.31961 -1.58423,4.2346 -3.49123,4.23884l0,-0.00001z" id="svg_1"/>
  <line fill="none" stroke-width="1.5" stroke-opacity="null" x1="18.5" y1="36.45313" x2="44.5" y2="35.45313" id="svg_2" stroke-linejoin="null" stroke-linecap="null" stroke="#000"/>
  <line fill="none" stroke-width="1.5" stroke-opacity="null" x1="32.5" y1="26.45313" x2="32.5" y2="45.45313" id="svg_3" stroke-linejoin="null" stroke-linecap="null" stroke="#000"/>
 </g>
</svg>