<svg width="60" height="60" xmlns="http://www.w3.org/2000/svg">
 <g>
  <title>Settings</title>
  <path stroke="#000" fill="#56aaff" stroke-width="1.5" d="m29.991276,24.273759c-3.634378,0 -6.579302,2.944924 -6.579302,6.57929c0,3.632681 2.944924,6.57929 6.579302,6.57929c0.832737,0 1.621649,-0.171942 2.354928,-0.45515l1.409252,2.166123l2.290869,-1.491847l-1.400814,-2.150957c1.188429,-1.190102 1.925067,-2.83367 1.925067,-4.647483c0,-3.634378 -2.944924,-6.57929 -6.579302,-6.57929l0,0.000012l0,0.000012zm-0.025277,-17.80776c-13.531123,0 -24.499999,10.968865 -24.499999,24.5c0,13.531135 10.968865,24.5 24.499999,24.5c13.531123,0 24.499999,-10.968865 24.499999,-24.5c0,-13.531135 -10.968865,-24.5 -24.499999,-24.5zm17.150334,32.606549c-0.406258,0.8496 -0.864766,1.668844 -1.392389,2.444275l-5.323455,-1.144592c-0.810819,0.886685 -1.734588,1.675597 -2.754445,2.334695l0.200601,5.397625c-0.854656,0.38771 -1.732891,0.709687 -2.644865,0.960842l-3.295549,-4.237855c-0.62708,0.085965 -1.264284,0.14498 -1.914956,0.14498c-0.600107,0 -1.190102,-0.04888 -1.771673,-0.124747l-3.278697,4.214263c-0.911962,-0.254537 -1.795276,-0.576515 -2.64655,-0.959169l0.197219,-5.30321c-1.068738,-0.670906 -2.03632,-1.483409 -2.885921,-2.405494l-5.181845,1.109193c-0.527622,-0.768679 -0.982761,-1.591305 -1.392389,-2.440893l3.519754,-3.892285c-0.380969,-1.185047 -0.596736,-2.445949 -0.648999,-3.747317l-4.666019,-2.467867c0.092718,-0.949058 0.278141,-1.866075 0.507389,-2.769612l5.198697,-0.719798c0.488853,-1.183362 1.137852,-2.279062 1.913271,-3.27363l-1.992507,-4.890224c0.672591,-0.65574 1.399141,-1.254161 2.162752,-1.803702l4.489033,2.818492c1.095712,-0.568089 2.274006,-0.999624 3.514686,-1.264272l1.63176,-5.058796c0.468631,-0.0354 0.935565,-0.070799 1.410937,-0.070799c0.475372,0 0.943991,0.037085 1.410937,0.070799l1.645241,5.104306c1.213706,0.27477 2.361668,0.70125 3.432091,1.264272l4.558147,-2.860644c0.766993,0.549541 1.495229,1.147962 2.166123,1.803702l-2.049813,5.033507c0.721483,0.950743 1.336768,1.99081 1.800332,3.110114l5.368966,0.74339c0.227575,0.901851 0.416369,1.82225 0.509086,2.769612l-4.832906,2.555529c-0.057318,1.223829 -0.252852,2.410549 -0.598433,3.539975l3.634378,4.015347l0.000012,0l0,-0.000012z" id="svg_1"/>
 </g>
</svg>