<svg width="50" height="50" xmlns="http://www.w3.org/2000/svg">
 <!-- Created with Method Draw - http://github.com/duopixel/Method-Draw/ -->

 <g>
  <title>Overview</title>
  <path stroke="#000" fill="#0fffff" stroke-width="1.5" d="m2.682697,35.887572c-0.014452,-11.186741 -0.028894,-22.373473 -0.043347,-33.560214c13.045982,0.128581 26.147292,-0.304587 39.149101,0.330157c6.340259,1.449842 5.42654,10.47526 5.323584,17.216543c-0.278121,5.083755 3.704411,15.161703 -6.639625,16.676504c-5.157052,0.000181 -5.177344,1.41931 -4.650959,3.98645c0.610859,3.845892 -1.162528,12.461164 -9.634354,7.000487l-23.5044,-11.649926l0,0zm39.927004,-3.656943c0.020962,-10.055451 -0.1539,-18.634189 -1.019407,-25.259291c-7.690008,-2.253514 -18.081346,-1.156833 -26.782159,-1.19107c-3.420272,1.071727 8.113437,4.630404 10.559637,6.011228c9.286619,2.96899 12.057342,8.368377 10.45372,14.470486c0,2.373699 0,4.747398 0,7.121096c1.712543,-0.001338 5.255519,-0.547984 6.788219,-1.152458l0,0.000009l-0.00001,0z" id="svg_1"/>
 </g>
</svg>