<svg width="58" height="40" xmlns="http://www.w3.org/2000/svg">
 <!-- Created with Method Draw - http://github.com/duopixel/Method-Draw/ -->
 <g>
  <title>Control</title>
  <path fill="#56aaff" stroke-width="1.5" d="m27.966,1.466c-10.76968,0 -19.5,8.28261 -19.5,18.5c0,10.21739 8.73032,18.5 19.5,18.5c10.76968,0 19.5,-8.28261 19.5,-18.5c0,-10.21739 -8.73032,-18.5 -19.5,-18.5zm11.25134,17.18639c-1.94678,2.12443 -4.97227,2.82706 -7.62746,2.01878l-9.64401,10.5216c-1.02773,1.12013 -2.81619,1.23469 -3.99687,0.26094s-1.30546,-2.67177 -0.27907,-3.7919l9.65742,-10.53306c-1.19812,-2.37392 -0.88148,-5.30026 1.0559,-7.41324c1.83408,-2.00478 4.63283,-2.73796 7.17531,-2.1308l-3.69499,4.08848l1.20886,3.33621l3.65206,0.67335l3.70438,-4.09867c1.00358,2.309 0.63462,5.05587 -1.21154,7.06829l0.00001,0.00002z" id="svg_1" stroke="#000"/>
 </g>
</svg>