<svg width="50" height="50" xmlns="http://www.w3.org/2000/svg">
 <!-- Created with Method Draw - http://github.com/duopixel/Method-Draw/ -->


 <g>
  <title>Help</title>
  <path id="svg_1" d="m24.57206,4.51012c-12.70314,0 -23,9.62589 -23,21.50001c0,11.87473 10.29685,21.49999 23,21.49999c12.70255,0 23,-9.62527 23,-21.49999c0,-11.87411 -10.29746,-21.50001 -23,-21.50001zm2.10143,33.88313l-4.28371,0l0,-3.84009l4.28371,0l0,3.84009zm0,-7.94033l0,1.26912l-4.28371,0l0,-1.56372c0,-4.7187 5.74455,-5.46751 5.74455,-8.82125c0,-1.52924 -1.46269,-2.70068 -3.37757,-2.70068c-1.98427,0 -3.72466,1.36672 -3.72466,1.36672l-2.43885,-2.83283c0,0 2.40384,-2.34353 6.54682,-2.34353c3.93542,0 7.58944,2.27808 7.58944,6.11873c0.00184,5.37275 -6.05604,5.99236 -6.05604,9.50744l0,0l0.00001,0.00001l0.00001,-0.00001z" stroke-width="1.5" fill="#56aaff" stroke="#000"/>
 </g>
</svg>