<svg width="25" height="35" xmlns="http://www.w3.org/2000/svg">
 <!-- Created with Method Draw - http://github.com/duopixel/Method-Draw/ -->

 <g>
  <title>Edit</title>
  <path fill="#56aaff" stroke-width="1.5" d="m23.017478,4.59447l-3.426313,-2.245906c-0.864469,-0.566089 -2.003556,-0.293632 -2.548264,0.608101l-1.350502,2.24171l6.554683,4.293422l1.351568,-2.240667c0.54264,-0.902811 0.283656,-2.091831 -0.581171,-2.656667l0,0l0,0.000009l0,-0.000002l-0.000001,0zm-18.989163,19.971283l6.55504,4.293376l10.683632,-17.736934l-6.55816,-4.294501l-10.680513,17.738059l0,0l0.000001,0zm-1.00128,5.454903l-0.144776,4.032695l3.421056,-1.887122l3.179136,-1.750565l-6.323854,-4.144586l-0.131554,3.749568l0,0l0,0l-0.000008,0.000009l0,0.000001z" id="svg_1" stroke="#000"/>
 </g>
</svg>