<svg width="50" height="50" xmlns="http://www.w3.org/2000/svg">
 <!-- Created with Method Draw - http://github.com/duopixel/Method-Draw/ -->

 <g transform="translate(0,-4)">
  <title>log out</title>
<path stroke="#000" fill="#56aaff" stroke-width="1.5" d="m37.343272,30.370599c-2.561619,4.169663 -7.32723,6.981136 -12.805271,6.990511c-8.182998,-0.013395 -14.797806,-6.257843 -14.813417,-13.977009c0.015611,-7.723186 6.630419,-13.966291 14.813417,-13.981028c5.476622,0.009375 10.240815,2.819513 12.803852,6.989175l5.622798,3.059273l0.202943,0.10983c-1.86055,-8.103586 -9.488647,-14.176584 -18.629595,-14.179261c-10.534586,0.002678 -19.07096,8.059381 -19.072379,18.002011c0.002839,9.93861 8.539213,17.995313 19.072379,17.997991c9.142367,-0.002678 16.773309,-6.078361 18.629595,-14.183281l-0.200105,0.108495l-5.624218,3.063285l0,0.000007l0.000001,0.000001zm6.122351,-6.986498l-10.147148,-5.53053l0,3.07668l-15.575518,0l0,4.903673l15.575518,0l0,3.07668l10.147148,-5.526511l0,0.000007l0,0.000001z" id="svg_1"/>
 </g>
</svg>