<?xml version="1.0" standalone="no"?><!DOCTYPE svg PUBLIC "-//W3C//DTD SVG 1.1//EN" "http://www.w3.org/Graphics/SVG/1.1/DTD/svg11.dtd"><svg t="1591338642184" class="icon" viewBox="0 0 1024 1024" version="1.1" xmlns="http://www.w3.org/2000/svg" p-id="11960" xmlns:xlink="http://www.w3.org/1999/xlink" width="200" height="200"><defs><style type="text/css"></style></defs><path d="M808.649434 257.501354v-31.625508s-3.016253-20.580963-27.110158-28.103536L568.216102 147.579684s-32.131227-7.531603-50.201656-5.517757l-269.548307 32.618885s-32.627916 1.508127-34.632731 29.620693v27.101128L475.859142 327.272535l332.790292-69.771181zM276.578706 271.562152l-62.745298-23.100528v50.707375l62.745298 26.098721zM276.578706 369.436869l-62.745298-25.593001v59.232355l62.745298 27.101128zM276.578706 474.852219l-62.745298-28.112566v54.717006l62.745298 30.117381zM276.578706 575.246501l-62.745298-29.620693v57.22754l62.745298 34.127012zM558.688714 763.482393l-4.018661-3.521973-80.815726 23.588186-260.020919-134.521293v63.251016s-27.101128 9.03973-5.517757 36.646577l9.030699 9.03973 215.33702 134.015574 17.56471 11.550264s19.578556 14.548456 50.698344 5.021069l109.92167-43.672461V834.255982l4.018661-11.044545-55.213695-31.625509-0.984346-28.103535zM409.095184 319.244243l-112.937923-41.161926v54.707975L409.095184 377.97088zM409.095184 422.654779l-112.937923-45.686307v61.74289L409.095184 486.393453zM409.095184 531.57404L296.157261 481.878103v57.22754l112.937923 52.197441zM296.157261 647.022497l112.441234 59.729044 0.496689-69.771181-112.937923-52.70316z" p-id="11961" opacity="0.7" fill="#000000"></path><path d="M564.206471 326.766816l-90.352144 17.582771-47.185403-17.582771v58.238978l47.682092 20.075244 89.855455-20.580963zM564.206471 425.662001l-93.865086 20.580964-43.672461-17.068022v65.75252l54.707975 22.08909 82.829572-20.084274zM564.206471 538.103236l-85.836794 21.077651-51.700753-21.077651v62.230547l62.239578 29.124005 75.297969-21.086683zM426.668924 645.514371v70.773588l48.684499 25.602032 87.335891-26.107751v-66.754927l-79.307599 23.100528zM581.265462 380.987133l179.196162-41.161926v-56.216102l-179.196162 37.639954zM581.265462 493.419337l179.196162-43.672461v-68.759743l-179.196162 39.6538zM581.265462 601.84191l179.196162-52.197441V490.908802l-179.196162 43.166742zM581.265462 709.758764l179.196162-55.204664v-63.251016l-179.196162 52.70316zM790.579005 758.452293l-63.747704-59.232355-158.615199 54.717006 68.272085 61.23717zM565.199848 778.536568l66.25824 39.6538-66.25824-58.735667zM805.145523 800.119939l-43.672461-22.08909-137.031828 53.705567 41.658615 22.59481v15.559894l19.072837 11.541234v15.568925l139.036643-63.251017v-11.044545l-18.576148-9.536418zM811.665688 784.560044l-4.018661-25.105343-31.625509 12.552672 28.112567 14.557487zM778.035364 446.242965l27.110159-7.531603v-67.766366l-27.110159 5.021068z" p-id="11962" opacity="0.7" fill="#000000"></path><path d="M660.582092 857.844168l-36.140858-20.580964v23.597217l54.717006 33.630323v-11.044545l-17.57374-10.538825zM805.633181 274.063656l-27.101128 5.526788v56.216101l27.101128-6.023476zM805.145523 754.442663v-70.773589l-59.232355 18.070429zM777.538676 544.126712l27.606847-8.037322v-55.719414l-27.606847 6.529196zM777.538676 649.533032l27.606847-8.028292v-63.251016l-27.606847 7.531603z" p-id="11963"  opacity="0.7" fill="#000000"></path><path d="M863.36644 0H160.63356c-40.159519 0-72.787435 32.627916-72.787435 72.787435v878.42513c0 40.150488 32.627916 72.787435 72.787435 72.787435h702.73288c40.159519 0 72.787435-32.627916 72.787435-72.787435V72.778404c0-40.150488-32.627916-72.778404-72.787435-72.778404z m27.606847 951.212565c0 15.054175-12.543641 27.606847-27.606847 27.606847H160.63356c-15.054175 0-27.606847-12.552672-27.606847-27.606847V72.778404c0-15.054175 12.552672-27.606847 27.606847-27.606847h702.73288c15.063206 0 27.606847 12.552672 27.606847 27.606847v878.434161z" p-id="11964" opacity="0.7" fill="#000000"></path></svg>