<?xml version="1.0" standalone="no"?><!DOCTYPE svg PUBLIC "-//W3C//DTD SVG 1.1//EN" "http://www.w3.org/Graphics/SVG/1.1/DTD/svg11.dtd"><svg t="1591946978004" class="icon" viewBox="0 0 1024 1024" version="1.1" xmlns="http://www.w3.org/2000/svg" p-id="10155" xmlns:xlink="http://www.w3.org/1999/xlink" width="200" height="200"><defs><style type="text/css"></style></defs><path d="M602.140444 715.150222h-163.413333v40.647111h-122.595555V796.444444h408.547555v-40.675555h-122.538667v-40.618667zM740.096 227.555556H300.771556C260.494222 227.555556 227.555556 264.362667 227.555556 309.390222v286.321778c0 44.970667 32.938667 81.834667 73.216 81.834667h439.324444c40.277333 0 73.216-36.778667 73.216-81.834667V309.390222C813.368889 264.419556 780.373333 227.555556 740.096 227.555556zM410.567111 595.712H337.351111v-122.652444h73.216v122.652444z m146.488889 0H483.84v-245.418667h73.187556v245.418667z m146.460444 0h-73.216v-163.555556h73.216v163.555556z" fill="#1296db" p-id="10156"></path></svg>